<?xml version="1.0" encoding="UTF-8"?>
<svg version="1.1" xmlns="http://www.w3.org/2000/svg" width="300" height="300">
<path d="M0 0 C33 0 66 0 100 0 C100 33 100 66 100 100 C67 100 34 100 0 100 C0 67 0 34 0 0 Z M50 25 C50 33.25 50 41.5 50 50 C58.25 50 66.5 50 75 50 C75 41.75 75 33.5 75 25 C66.75 25 58.5 25 50 25 Z " fill="#000000" transform="translate(12,150)"/>
<path d="M0 0 C33 0 66 0 100 0 C100 33 100 66 100 100 C67 100 34 100 0 100 C0 67 0 34 0 0 Z M25 49 C25 57.58 25 66.16 25 75 C33.58 75 42.16 75 51 75 C51 66.42 51 57.84 51 49 C42.42 49 33.84 49 25 49 Z " fill="#000000" transform="translate(137,25)"/>
<path d="M0 0 C33 0 66 0 100 0 C100 33 100 66 100 100 C87.46 100 74.92 100 62 100 C62 108.25 62 116.5 62 125 C54.08 125 46.16 125 38 125 C38 116.75 38 108.5 38 100 C25.46 100 12.92 100 0 100 C0 67 0 34 0 0 Z M25 25 C25 41.5 25 58 25 75 C29.29 75 33.58 75 38 75 C38 70.71 38 66.42 38 62 C45.92 62 53.84 62 62 62 C62 66.29 62 70.58 62 75 C66.29 75 70.58 75 75 75 C75 58.5 75 42 75 25 C58.5 25 42 25 25 25 Z " fill="#000000" transform="translate(137,150)"/>
<path d="M0 0 C8.25 0 16.5 0 25 0 C25 20.79 25 41.58 25 63 C-8 63 -41 63 -75 63 C-75 46.5 -75 30 -75 13 C-66.75 13 -58.5 13 -50 13 C-50 21.25 -50 29.5 -50 38 C-33.5 38 -17 38 0 38 C0 25.46 0 12.92 0 0 Z " fill="#000000" transform="translate(87,62)"/>
<path d="M0 0 C8.25 0 16.5 0 25 0 C25 8.25 25 16.5 25 25 C16.75 25 8.5 25 0 25 C0 16.75 0 8.5 0 0 Z " fill="#000000" transform="translate(87,25)"/>
<path d="M0 0 C6.6 0 13.2 0 20 0 C20 8.25 20 16.5 20 25 C18.68 25 17.36 25 16 25 C16 18.07 16 11.14 16 4 C14.68 4 13.36 4 12 4 C12 10.93 12 17.86 12 25 C10.68 25 9.36 25 8 25 C8 18.07 8 11.14 8 4 C6.68 4 5.36 4 4 4 C4 10.93 4 17.86 4 25 C2.68 25 1.36 25 0 25 C0 16.75 0 8.5 0 0 Z " fill="#000000" transform="translate(275,25)"/>
<path d="M0 0 C6.6 0 13.2 0 20 0 C20 1.32 20 2.64 20 4 C17.36 4 14.72 4 12 4 C12 10.93 12 17.86 12 25 C10.68 25 9.36 25 8 25 C8 18.07 8 11.14 8 4 C5.36 4 2.72 4 0 4 C0 2.68 0 1.36 0 0 Z " fill="#000000" transform="translate(250,25)"/>
</svg>
