<?xml version="1.0" encoding="UTF-8" standalone="no"?>
<!-- Created with Sodipodi ("http://www.sodipodi.com/") -->

<svg
   version="1"
   x="0.00000000"
   y="0.00000000"
   width="510.24548"
   height="488.63107"
   viewBox="0 0 510.24547 488.63107"
   id="svg548"
   xmlns:xlink="http://www.w3.org/1999/xlink"
   xmlns="http://www.w3.org/2000/svg"
   xmlns:svg="http://www.w3.org/2000/svg"
   xmlns:rdf="http://www.w3.org/1999/02/22-rdf-syntax-ns#"
   xmlns:cc="http://creativecommons.org/ns#"
   xmlns:dc="http://purl.org/dc/elements/1.1/">
  <metadata
     id="metadata37">
    <rdf:RDF>
      <cc:Work
         rdf:about="">
        <dc:format>image/svg+xml</dc:format>
        <dc:type
           rdf:resource="http://purl.org/dc/dcmitype/StillImage" />
      </cc:Work>
    </rdf:RDF>
  </metadata>
  <defs
     id="defs781">
    <linearGradient
       x1="0"
       y1="0"
       x2="1"
       y2="0"
       id="linearGradient1383"
       gradientUnits="objectBoundingBox"
       spreadMethod="pad">
      <stop
         style="stop-color:#ffffff;stop-opacity:1;"
         offset="0.00000000"
         id="stop1386" />
      <stop
         style="stop-color:#ccf0ff;stop-opacity:1;"
         offset="0.30340001"
         id="stop1385" />
      <stop
         style="stop-color:#1d6ce9;stop-opacity:1;"
         offset="1.00000000"
         id="stop1384" />
    </linearGradient>
    <linearGradient
       x1="61.747101"
       y1="1479.6748"
       x2="61.747101"
       y2="1407.2228"
       id="path12_1_"
       gradientUnits="userSpaceOnUse"
       gradientTransform="matrix(1,0,0,-1,429.7349,1484.611)"
       spreadMethod="pad">
      <stop
         style="stop-color:#ffffd9;stop-opacity:1;"
         offset="0.01120000"
         id="stop569" />
      <stop
         style="stop-color:#ffdc2d;stop-opacity:1;"
         offset="1.00000000"
         id="stop570" />
    </linearGradient>
    <linearGradient
       x1="61.746101"
       y1="1476.0264"
       x2="61.746101"
       y2="1407.1416"
       id="path16_2_"
       gradientUnits="userSpaceOnUse"
       gradientTransform="matrix(1,0,0,-1,429.7349,1484.611)"
       spreadMethod="pad">
      <stop
         style="stop-color:#ffff90;stop-opacity:1;"
         offset="0.00000000"
         id="stop576" />
      <stop
         style="stop-color:#e19700;stop-opacity:1;"
         offset="1.00000000"
         id="stop577" />
    </linearGradient>
    <linearGradient
       x1="61.746601"
       y1="1477.2832"
       x2="61.746601"
       y2="1421.093"
       id="path20_1_"
       gradientUnits="userSpaceOnUse"
       gradientTransform="matrix(1,0,0,-1,429.7349,1484.611)"
       spreadMethod="pad">
      <stop
         style="stop-color:#ffff42;stop-opacity:1;"
         offset="0.00000000"
         id="stop583" />
      <stop
         style="stop-color:#ff8300;stop-opacity:1;"
         offset="1.00000000"
         id="stop584" />
    </linearGradient>
    <linearGradient
       x1="27.8276"
       y1="1494.8096"
       x2="104.6544"
       y2="1381.3988"
       id="path24_1_"
       gradientUnits="userSpaceOnUse"
       gradientTransform="matrix(1,0,0,-1,429.7349,1484.611)"
       spreadMethod="pad">
      <stop
         style="stop-color:#ffff42;stop-opacity:1;"
         offset="0.00000000"
         id="stop590" />
      <stop
         style="stop-color:#ff8300;stop-opacity:1;"
         offset="0.74159998"
         id="stop591" />
    </linearGradient>
    <linearGradient
       x1="61.746601"
       y1="1398.3232"
       x2="61.746601"
       y2="1486.0776"
       id="XMLID_1_"
       gradientUnits="userSpaceOnUse"
       gradientTransform="matrix(1,0,0,-1,429.7349,1484.611)"
       spreadMethod="pad">
      <stop
         style="stop-color:#744426;stop-opacity:1;"
         offset="0.60670000"
         id="stop597" />
      <stop
         style="stop-color:#de972b;stop-opacity:1;"
         offset="1.00000000"
         id="stop598" />
    </linearGradient>
    <linearGradient
       id="linearGradient1379"
       xlink:href="#linearGradient1383" />
    <linearGradient
       id="linearGradient1380"
       xlink:href="#path20_1_" />
    <radialGradient
       cx="0.5"
       cy="0.5"
       fx="0.5"
       fy="0.5"
       r="0.5"
       id="radialGradient1381"
       xlink:href="#linearGradient1383"
       gradientUnits="objectBoundingBox"
       spreadMethod="pad" />
    <radialGradient
       cx="0.48691154"
       cy="0.062499851"
       fx="0.48691154"
       fy="0.062499851"
       r="0.95157194"
       id="radialGradient1382"
       xlink:href="#path24_1_"
       gradientUnits="objectBoundingBox"
       gradientTransform="scale(0.999999)"
       spreadMethod="pad" />
    <linearGradient
       x1="0.0045249201"
       y1="0.97436112"
       x2="0.9864254"
       y2="0.01282063"
       id="linearGradient1424"
       xlink:href="#XMLID_1_"
       gradientUnits="objectBoundingBox"
       spreadMethod="pad" />
    <linearGradient
       x1="0.0045247502"
       y1="0.9199807"
       x2="0.98642552"
       y2="0.01999962"
       id="linearGradient1425"
       xlink:href="#linearGradient1383"
       gradientUnits="objectBoundingBox"
       spreadMethod="pad" />
    <linearGradient
       x1="0"
       y1="0"
       x2="1"
       y2="0"
       id="linearGradient1426"
       xlink:href="#linearGradient1383"
       gradientUnits="objectBoundingBox"
       spreadMethod="pad" />
  </defs>
  <g
     id="g959"
     transform="translate(-8.931029,-127.26541)">
    <g
       id="g3231">
      <path
         d="m -140.934,431.596 6.89,3.348 -64.733,125.018 -153.761,59.099 -26.801,-85.887 -4.232,-53.603 8.101,-0.886 3.708,50.782 24.867,79.882 142.935,-56.185 63.026,-121.568 v 0 0 z M 15.6476,314.514 -5.51842,392.1 l -99.10458,34.021 -2.463,-8.624 94.5165,-32.447 17.81398,-63.48 -182.85748,-31.036 -42.482,-40.219 5.804,-6.332 40.909,39.496 z M -396.781,465.452 h -7.94 l 16.207,-247.783 -11.975,-25.883 56.428,-36.678 30.11,9.414 30.548,-10.824 40.909,36.677 -5.478,5.479 -37.399,-33.331 -28.178,10.236 -28.902,-8.825 -47.488,29.912 9.335,23.946 -15.652,247.66 v 0 z"
         transform="translate(503.5289,-22.42548)"
         style="font-size:12px;fill:#e1e1e1"
         id="path622" />
      <path
         d="M -406.605,483.949 -375.668,50.8256 -391.137,11.049 -355.78,-11.0491 -304.954,6.62939 -258.548,-19.8883 -75.1336,196.673 256.338,260.758 238.66,340.311 2.20981,424.284 -103.861,643.055 l -229.82,97.232 -39.777,-141.428 4.42,-83.973 z"
         transform="matrix(0.549939,0,0,0.549939,344.4554,162.9891)"
         style="font-size:12px;fill:#e1e1e1;fill-rule:evenodd;stroke-width:1pt"
         id="path1470" />
      <path
         d="m 359.066,380.346 6.89,3.348 -64.733,125.018 -153.761,59.099 -26.801,-85.887 -4.232,-53.603 8.101,-0.886 3.708,50.782 24.867,79.882 142.935,-56.185 63.026,-121.568 v 0 0 z m 156.582,-117.082 -21.166,77.586 -99.105,34.021 -2.463,-8.624 94.516,-32.447 17.814,-63.48 -182.857,-31.036 -42.482,-40.219 5.804,-6.332 40.909,39.496 z M 103.219,414.202 h -7.9401 l 16.2071,-247.783 -11.9752,-25.883 56.4282,-36.678 30.11,9.414 30.548,-10.824 40.909,36.677 -5.478,5.479 -37.399,-33.331 -28.178,10.236 -28.902,-8.825 -47.488,29.912 9.335,23.946 -15.652,247.66 v 0 z"
         transform="translate(-3.970737,24.81741)"
         style="font-size:12px;fill:#1f5ea3;fill-opacity:1"
         id="path629" />
      <path
         d="M -406.605,483.949 -375.668,50.8256 -391.137,11.049 -355.78,-11.0491 -304.954,6.62939 -258.548,-19.8883 -75.1336,196.673 256.338,260.758 238.66,340.311 2.20981,424.284 -103.861,643.055 l -229.82,97.232 -39.777,-141.428 4.42,-83.973 z"
         style="font-size:12px;fill:#69b0ff;fill-opacity:1;fill-rule:evenodd;stroke-width:1pt"
         id="path638"
         transform="matrix(0.549939,0,0,0.549939,337.5066,157.0329)" />
      <path
         d="m -250.318,94.2888 -21.82,101.8212 c -0.349,0.727 -0.636,1.906 -0.853,3.553 -4.661,21.8 -12.02,36.505 -22.082,44.13 -10.071,7.622 -24.661,11.423 -43.796,11.423 -7.693,0 -14.736,-0.354 -21.136,-1.022 -6.403,-0.692 -12.853,-2.433 -19.362,-5.24 -6.509,-2.798 -11.867,-7.311 -16.073,-13.545 -4.214,-6.218 -6.309,-14.512 -6.309,-24.877 0,-2.945 0.362,-6.643 1.077,-11.105 l 46.296,-5.29 v 1.823 c -0.291,2.005 -0.436,4.045 -0.436,6.121 v 3.341 c 0,8.667 4.752,12.998 14.245,12.998 4.563,0 8.132,-1.147 10.699,-3.451 2.571,-2.295 4.481,-5.247 5.727,-8.844 1.246,-3.592 2.551,-8.698 3.915,-15.322 l 20.817,-96.5103 z m 169.0674,0 -20.3144,95.3632 c -4.819,22.318 -13.399,38.827 -25.761,49.53 -12.366,10.692 -30.731,16.038 -55.089,16.038 -13.514,0 -24.316,-1.329 -32.401,-3.998 -8.086,-2.657 -14.901,-6.654 -20.428,-11.996 -5.534,-5.326 -9.563,-11.395 -12.071,-18.207 -2.516,-6.808 -3.77,-14.104 -3.77,-21.875 0,-9.878 0.971,-19.303 2.917,-28.289 l 16.277,-76.5623 h 49.067 l -19.009,88.9633 c -0.869,4.167 -1.289,8.589 -1.289,13.255 0,12.519 7.386,18.781 22.153,18.781 7.811,0 14.461,-2.378 19.945,-7.123 5.479,-4.74 9.657,-13.942 12.531,-27.605 l 18.002,-86.2674 z m 166.6233,43.4132 -48.163,5.279 C 32.8152,130.454 23.8846,124.189 10.414,124.189 c -13.18354,0 -23.6313,6.682 -31.3355,20.031 -7.7081,13.352 -11.5681,27.636 -11.5681,42.864 0,8.82 2.8537,16.198 8.565,22.153 5.7231,5.951 12.9949,8.927 21.83896,8.927 h 0.4324 c 10.05475,0 18.89094,-2.606 26.50874,-7.826 l 3.6713,-17.236 H -1.54714 L 5.5832,160.21 h 73.9209 l -15.8447,74.51 c -24.6337,12.189 -49.0434,18.29 -73.22904,18.29 -21.82726,0 -39.11836,-5.9 -51.90496,-17.708 -12.7788,-11.804 -19.1662,-28.399 -19.1662,-49.771 0,-17.849 4.0723,-34.22 12.2128,-49.114 8.1404,-14.905 19.6181,-26.473 34.429,-34.716 14.807,-8.2423 31.78756,-12.3656 50.9655,-12.3656 37.4597,0.0039 60.2617,16.1236 68.4062,48.3666 z"
         transform="matrix(0.713133,0,0,0.713132,297.3065,213.9518)"
         style="font-size:12px;fill:#ffffff;fill-opacity:1;stroke:#1f5ea3;stroke-width:5.25849;stroke-dasharray:none;stroke-opacity:1"
         id="path1430" />
      <path
         d="m 138.945,425.992 c 1.571,-6.409 5.149,-11.363 10.746,-14.847 5.576,-3.478 14.235,-5.225 25.97,-5.225 13.296,0 22.265,1.667 26.913,5.015 4.663,3.342 6.997,8.196 6.997,14.581 0,4.251 -1.165,11.243 -3.489,20.98 -2.163,9.236 -3.227,15.655 -3.227,19.274 0,3.062 0.532,6.179 1.606,9.376 h -25.257 c -0.602,-2.67 -0.898,-5.25 -0.898,-7.715 -6.796,6.219 -14.38,9.336 -22.748,9.336 -8.542,0 -14.671,-2.002 -18.41,-5.998 -3.75,-4.01 -5.612,-8.638 -5.612,-13.923 0,-5.998 1.667,-10.561 4.999,-13.713 3.318,-3.152 7.424,-5.28 12.298,-6.409 4.873,-1.14 11.539,-2.108 19.966,-2.977 7.514,-0.808 12.508,-1.591 15.008,-2.354 0.507,-1.998 0.748,-3.523 0.748,-4.582 0,-1.702 -0.879,-3.062 -2.605,-4.071 -1.742,-1.019 -4.066,-1.541 -6.932,-1.541 -3.011,0 -5.446,0.472 -7.298,1.425 -1.877,0.949 -3.513,2.952 -4.924,5.988 z m 42.051,18.823 c -11.976,2.012 -19.003,3.779 -21.091,5.32 -2.088,1.541 -3.127,3.368 -3.127,5.461 0,2.183 0.733,3.905 2.229,5.155 1.495,1.26 3.418,1.897 5.747,1.897 3.282,0 6.54,-1.335 9.752,-4.015 3.218,-2.666 5.381,-7.278 6.49,-13.818 z m -30.211,-37.268 -42.347,67.604 H 85.4293 L 72.5197,407.547 h 24.5492 l 3.8051,42.799 h 0.251 l 22.501,-42.799 z M 45.7771,405.92 c 12.1064,0 20.9504,3.072 26.5017,9.196 5.5413,6.118 8.3169,13.301 8.3169,21.507 0,6.264 -1.5861,12.614 -4.7833,19.094 -3.1873,6.459 -7.9857,11.599 -14.3802,15.374 -6.3996,3.789 -14.2799,5.681 -23.6308,5.681 -11.8555,0 -20.6141,-2.921 -26.2808,-8.778 -5.6467,-5.843 -8.47255,-13.141 -8.47255,-21.859 0,-6.847 1.68647,-13.467 5.06946,-19.841 3.37299,-6.38 8.27679,-11.379 14.69639,-14.973 6.4146,-3.599 14.074,-5.401 22.9632,-5.401 z m -6.3293,53.486 c 4.8837,0 8.7536,-2.505 11.6196,-7.509 2.866,-4.984 4.3015,-10.541 4.3015,-16.634 0,-4.417 -1.0942,-7.524 -3.2776,-9.301 -2.1834,-1.787 -4.6027,-2.67 -7.2478,-2.67 -5.5262,0 -9.6571,2.505 -12.4227,7.524 -2.7706,5.029 -4.1359,10.149 -4.1359,15.394 0,3.764 1.0741,6.922 3.2374,9.426 2.1533,2.515 4.7934,3.77 7.9255,3.77 z M 16.2236,381.617 -3.76811,475.151 H -27.9309 l 1.29,-6.791 -0.261,-0.326 c -3.654,3.428 -6.9617,5.742 -9.903,6.946 -2.9614,1.19 -6.4648,1.792 -10.5505,1.792 -7.6494,0 -13.4918,-2.534 -17.5524,-7.614 -4.0556,-5.079 -6.0884,-11.916 -6.0884,-20.484 0,-11.469 3.0467,-21.457 9.1351,-29.975 6.0884,-8.512 13.7879,-12.774 23.1087,-12.774 9.5165,0 16.684,3.539 21.5427,10.586 l 7.39839,-34.894 z m -53.1038,78.025 c 4.8135,0 8.5127,-2.691 11.0875,-8.061 2.5699,-5.371 3.8599,-10.857 3.8599,-16.459 0,-3.945 -1.0139,-6.896 -3.0267,-8.874 -2.0277,-1.982 -4.3316,-2.956 -6.9366,-2.956 -3.7895,0 -7.037,2.404 -9.7675,7.223 -2.7305,4.828 -4.0907,10.621 -4.0907,17.412 0,3.809 0.8232,6.73 2.4544,8.708 1.6363,2.003 3.7846,3.007 6.4197,3.007 z m -101.8958,-33.65 c 1.566,-6.409 5.149,-11.363 10.731,-14.847 5.591,-3.478 14.255,-5.225 25.985,-5.225 13.2956,0 22.2701,1.667 26.928,5.015 4.6428,3.342 6.9667,8.196 6.9667,14.581 0,4.251 -1.1494,11.243 -3.4834,20.98 -2.1532,9.236 -3.2324,15.655 -3.2324,19.274 0,3.062 0.5371,6.179 1.6212,9.376 h -25.2669 c -0.5873,-2.67 -0.8985,-5.25 -0.8985,-7.715 -6.7957,6.219 -14.3647,9.336 -22.7427,9.336 -8.537,0 -14.671,-2.002 -18.41,-5.998 -3.74,-4.01 -5.602,-8.638 -5.602,-13.923 0,-5.998 1.662,-10.561 4.984,-13.713 3.333,-3.152 7.424,-5.28 12.298,-6.409 4.883,-1.14 11.539,-2.108 19.976,-2.977 7.499,-0.808 12.4982,-1.591 15.0028,-2.354 0.507,-1.998 0.7479,-3.523 0.7479,-4.582 0,-1.702 -0.8733,-3.062 -2.61,-4.071 -1.7467,-1.029 -4.0505,-1.541 -6.9267,-1.541 -3.011,0 -5.446,0.472 -7.313,1.425 -1.862,0.949 -3.498,2.952 -4.919,5.988 z m 42.0461,18.823 c -11.9811,2.012 -19.0081,3.779 -21.0961,5.32 -2.088,1.541 -3.127,3.368 -3.127,5.461 0,2.183 0.748,3.905 2.239,5.155 1.48,1.26 3.408,1.897 5.747,1.897 3.272,0 6.53,-1.335 9.742,-4.015 3.2275,-2.666 5.3908,-7.278 6.4951,-13.818 z M -206.381,381.617 h 42.388 c 7.965,0 13.984,0.944 18.034,2.836 4.051,1.892 7.143,4.703 9.251,8.427 2.128,3.725 3.187,8.297 3.187,13.688 0,7.017 -1.882,13.271 -5.662,18.737 -3.799,5.466 -8.548,9.396 -14.27,11.775 -5.732,2.389 -13.662,3.569 -23.796,3.569 h -12.734 l -7.448,34.502 h -29.157 z m 20.409,40.511 h 9.687 c 4.507,0 8.221,-1.346 11.112,-4.016 2.891,-2.67 4.342,-5.867 4.342,-9.567 0,-5.606 -3.032,-8.412 -9.095,-8.412 h -11.303 z"
         transform="matrix(0.749982,0,0,0.749982,338.5358,116.3719)"
         style="font-size:12px;fill:#ffffff;fill-opacity:1;stroke:#1f5ea3;stroke-width:5.08267;stroke-opacity:1"
         id="path1443" />
    </g>
    <ellipse
       transform="matrix(-0.19905855,0.9799876,0.9799876,0.19905854,0,0)"
       id="path3239"
       style="fill:none;fill-opacity:1;fill-rule:nonzero;stroke:none;stroke-width:2.10794;stroke-linecap:round;stroke-linejoin:round;stroke-miterlimit:4;stroke-dasharray:none;stroke-opacity:1"
       cx="326.31525"
       cy="314.80969"
       rx="233.44603"
       ry="233.446" />
  </g>
</svg>
